# xmcd
#
# Track frame offsets:
#	150
#	15918
#	29535
#	49675
#	75094
#	89075
#	104834
#	119203
#	133437
#	147504
#	160608
#	179460
#	194713
#
# Disc length: 2768 seconds
#
# Revision: 1
# Processed by: cddbd v1.5.2PL0 Copyright (c) Steve Scherf et al.
# Submitted via: audiograbber 1.83.01
#
DISCID=be0ace0d
DTITLE=Edith Piaf - Adieu mon coeur - CD 1: Bal dans ma rue
DYEAR=2008
DGENRE=Chanson
TTITLE0=A l'enseigne de la fille sans coeur
TTITLE1=Bal dans ma rue
TTITLE2=C'était une histoire d'amour
TTITLE3=Dans ma rue
TTITLE4=J'suis mordue
TTITLE5=M. Ernest a réussi
TTITLE6=Jézébel
TTITLE7=La fête continue
TTITLE8=Le chevalier de Paris
TTITLE9=Les deux copains
TTITLE10=On danse sur ma chanson
TTITLE11=Madeleine qu'avait du coeur
TTITLE12=Pleure pas
EXTD=10 CD Box
EXTT0=
EXTT1=
EXTT2=
EXTT3=
EXTT4=
EXTT5=
EXTT6=
EXTT7=
EXTT8=
EXTT9=
EXTT10=
EXTT11=
EXTT12=
PLAYORDER=
